<svg xmlns="http://www.w3.org/2000/svg" width="17" height="11"><path d="M17 1.03C17 .46 16.55 0 16 0h-1c-.55 0-1 .46-1 1.03v8.94c0 .57.45 1.03 1 1.03h1c.55 0 1-.46 1-1.03V1.03Zm-7.67 2.4c0-.56.45-1.02 1-1.02h1c.56 0 1 .46 1 1.03v6.53c0 .57-.44 1.03-1 1.03h-1c-.55 0-1-.46-1-1.03V3.44ZM7.67 5.85c0-.57-.45-1.03-1-1.03h-1c-.56 0-1 .46-1 1.03v4.13c0 .57.44 1.03 1 1.03h1c.55 0 1-.46 1-1.03V5.84ZM3 7.91c0-.57-.45-1.04-1-1.04H1c-.55 0-1 .47-1 1.04v2.06C0 10.54.45 11 1 11h1c.55 0 1-.46 1-1.03V7.9Z"/></svg>