<svg xmlns="http://www.w3.org/2000/svg" width="18" height="15"><path fill="#f5f5f5" d="m4.14 10.76.4.08a8.67 8.67 0 0 0 2.42.21c-.12-.43-.2-.9-.2-1.36a5.27 5.27 0 0 1 6.04-5.11C12.25 1.95 9.5 0 6.37 0 2.87 0 0 2.44 0 5.54c0 1.79.95 3.26 2.55 4.4L1.9 11.9l2.23-1.14Zm-.8-7.17c0-.5.48-.82.96-.82s.8.33.8.82c0 .48-.32.81-.8.81-.48 0-.96-.32-.96-.81Zm5.42-.82c.48 0 .8.33.8.82 0 .49-.32.81-.8.81-.48 0-.96-.32-.96-.81 0-.5.48-.82.96-.82Zm5.74 11.25 1.75.98-.48-1.63c1.28-.98 2.23-2.29 2.23-3.75 0-2.6-2.55-4.73-5.41-4.73-3.04 0-5.42 2.12-5.42 4.73 0 2.6 2.38 4.72 5.42 4.72.61 0 1.23-.15 1.85-.3l.06-.02Zm-4.3-5.87c0-.32.31-.65.63-.65.48 0 .8.33.8.65 0 .33-.32.65-.8.65-.32 0-.63-.32-.63-.65Zm4.14.65c-.32 0-.64-.32-.64-.65 0-.32.32-.65.64-.65.48 0 .8.33.8.65 0 .33-.33.65-.8.65Z"/></svg>