<svg xmlns="http://www.w3.org/2000/svg" width="17" height="14"><path fill="#f5f5f5" d="M3.78 6.9c1.78-.02 3.48.42 5.14 1.08.32.13.52.1.65-.28.2-.59.43-1.17.67-1.75.18-.44.1-.58-.37-.57l-4.32.01H3.59c-.23 0-.43 0-.43-.39 0-.4.2-.4.48-.4l.87-.01c.54 0 1.09-.01 1.63.02.49.03.64-.12.62-.66-.03-.46-.01-.64-.1-.71-.07-.07-.23-.04-.58-.04H2.84c-.29 0-.46 0-.47-.41 0-.4.18-.43.46-.43h3.39c.38.01.54-.07.54-.53 0-1.87.01-1.87 1.71-1.81h.03c.33 0 .42.14.4.48v.64l-.01.74c-.03.4.1.5.44.49l2.28-.01h1.5c.28 0 .46.02.46.42 0 .4-.17.42-.45.42H9.7c-.81 0-.81 0-.82.86v.06c-.01.39.1.49.45.48h1.21c.54 0 1.07 0 1.6-.02.51-.02.51.2.4.61-.3 1.07-.62 2.13-1.14 3.09-.26.48-.12.59.29.72a204.81 204.81 0 0 1 5.3 1.8v3.15a342.1 342.1 0 0 1-6.58-3.17c-.32-.16-.5-.1-.7.18a8.74 8.74 0 0 1-1.58 1.62 5.98 5.98 0 0 1-5.43 1.21c-.12.02-.21-.02-.3-.1l-.12-.04a.25.25 0 0 1-.25-.11L2 13.53a3.25 3.25 0 0 1-2-3.13c.04-1.47.84-2.69 2.08-3.14a3.91 3.91 0 0 1 1.7-.36Zm-.96 5.73c.04 0 .07-.02.1-.01 2.23.36 3.85-.77 5.22-2.5l.05-.06c.13-.16.28-.33-.06-.5-1.83-.89-3.7-1.53-5.74-1.2l-.1.04-.03.02-.03-.01-.16.06-.3.18-.18.17c-.13.12-.25.24-.36.38-.82 1.07-.38 2.57.91 3.16a38.29 38.29 0 0 0 .63.28l.05-.01Z"/></svg>